<svg id="Layer_1" data-name="Layer 1" xmlns="http://www.w3.org/2000/svg" viewBox="0 0 328 249"><defs><style>.cls-1{fill:#29b9a0;}.cls-2{fill:#f8bb4b;}</style></defs><title>thums-up</title><path class="cls-1" d="M139.39,76.13A3.89,3.89,0,0,0,142.11,75a3.83,3.83,0,0,0,0-5.44L120.45,47.91A3.85,3.85,0,1,0,115,53.35L136.67,75A3.89,3.89,0,0,0,139.39,76.13Z"/><path class="cls-1" d="M172.2,63.65V33.05a3.85,3.85,0,1,0-7.7,0V63.69a3.83,3.83,0,0,0,3.85,3.85A3.89,3.89,0,0,0,172.2,63.65Z"/><path class="cls-1" d="M232,98H201.36a3.85,3.85,0,0,0,0,7.7H232a3.85,3.85,0,1,0,0-7.7Z"/><path class="cls-1" d="M100.82,101.87a3.83,3.83,0,0,0,3.85,3.85h30.64a3.85,3.85,0,0,0,0-7.7H104.67A3.88,3.88,0,0,0,100.82,101.87Z"/><path class="cls-1" d="M196.78,77.22l21.66-21.66A3.85,3.85,0,1,0,213,50.12L191.33,71.78a3.83,3.83,0,0,0,0,5.44,3.85,3.85,0,0,0,5.44,0Z"/><path class="cls-2" d="M92.15,143.32V210a7.59,7.59,0,0,0,7.58,7.58H122.4a7.61,7.61,0,0,0,6.26-3.27,20.08,20.08,0,0,0,13.76,5.48h60.73c13.61,0,22.28-7.15,23.83-19.6l8.16-51.94a2.94,2.94,0,0,0,0-.58,20.13,20.13,0,0,0-20.1-20.1H184.72V105.76c0-9.45-2.76-16.25-8.24-20.3-8.67-6.34-20.53-2.72-21-2.57a3.84,3.84,0,0,0-2.68,3.65v24.81c0,19.32-22.47,25.93-23.41,26.21a3.11,3.11,0,0,0-1.28.66,7.58,7.58,0,0,0-5.64-2.53H99.73A7.6,7.6,0,0,0,92.15,143.32ZM130,145.11a4.27,4.27,0,0,0,1.4-.12c1.21-.35,29-8.4,29-33.59V89.66c3-.47,7.93-.62,11.47,2,3.38,2.49,5.09,7.23,5.09,14v25.66a3.83,3.83,0,0,0,3.85,3.85h34.21a12.41,12.41,0,0,1,12.4,12.13L219.36,199v.12c-1,8.55-6.49,12.87-16.21,12.87H142.42a12.41,12.41,0,0,1-12.4-12.4V145.11ZM99.85,143.4h22.47v66.48H99.85Z"/></svg>
