<svg id="Layer_1" data-name="Layer 1" xmlns="http://www.w3.org/2000/svg" viewBox="0 0 455 1335"><defs><style>.cls-1,.cls-2{fill:none;stroke:#f8bb4b;stroke-miterlimit:10;}.cls-1{stroke-width:4.42px;}.cls-2{stroke-width:3.94px;}.cls-3{fill:#29b9a0;}.cls-4{fill:#f8bb4b;}</style></defs><title>thumbs-up</title><line class="cls-1" x1="238" y1="765.5" x2="238" y2="1192.5"/><circle class="cls-2" cx="238" cy="1253" r="26"/><path class="cls-3" d="M210.31,110.63a5.39,5.39,0,0,0,3.73-1.54,5.25,5.25,0,0,0,0-7.41l0,0L184.39,72a5.27,5.27,0,0,0-7.45,7.45l29.64,29.64A5.36,5.36,0,0,0,210.31,110.63Z"/><path class="cls-3" d="M255.23,93.54V51.66a5.27,5.27,0,1,0-10.54,0h0V93.6A5.25,5.25,0,0,0,250,98.82h0A5.34,5.34,0,0,0,255.23,93.54Z"/><path class="cls-3" d="M337.08,140.59H295.14a5.27,5.27,0,1,0,0,10.54h41.94a5.27,5.27,0,0,0,0-10.54Z"/><path class="cls-3" d="M157.52,145.82a5.25,5.25,0,0,0,5.23,5.27h42a5.27,5.27,0,0,0,0-10.54H162.79A5.32,5.32,0,0,0,157.52,145.82Z"/><path class="cls-3" d="M288.86,112.12,318.5,82.48A5.27,5.27,0,0,0,311.05,75l-29.64,29.64a5.23,5.23,0,0,0,0,7.41l0,0A5.28,5.28,0,0,0,288.86,112.12Z"/><path class="cls-4" d="M145.65,202.59v91.23A10.39,10.39,0,0,0,156,304.24h31a10.45,10.45,0,0,0,8.57-4.47,27.48,27.48,0,0,0,18.84,7.5h83.13c18.63,0,30.49-9.79,32.62-26.82l11.18-71.1a4.3,4.3,0,0,0,.05-.8A27.55,27.55,0,0,0,313.88,181H272.37V151.18c0-12.93-3.78-22.25-11.28-27.78-11.87-8.67-28.1-3.73-28.79-3.51a5.24,5.24,0,0,0-3.67,5v34c0,26.45-30.76,35.5-32,35.87a4.22,4.22,0,0,0-1.76.9,10.37,10.37,0,0,0-7.72-3.46H156A10.4,10.4,0,0,0,145.65,202.59ZM197.49,205a5.93,5.93,0,0,0,1.92-.16c1.65-.48,39.76-11.5,39.76-46V129.15c4.1-.64,10.86-.85,15.7,2.77,4.63,3.41,7,9.9,7,19.21v35.13a5.25,5.25,0,0,0,5.23,5.27H314a17,17,0,0,1,17,16.6l-11.19,70.69V279c-1.44,11.71-8.89,17.62-22.19,17.62H214.46a17,17,0,0,1-17-17V205Zm-41.3-2.34H187v91H156.19Z"/></svg>