<svg id="Layer_1" data-name="Layer 1" xmlns="http://www.w3.org/2000/svg" viewBox="0 0 604 717"><defs><style>.cls-1,.cls-2{fill:#001533;}.cls-1{opacity:0.8;}.cls-3{fill:#f8bb4b;}</style></defs><title>discover parking-33svg</title><path class="cls-1" d="M186.61,332.13a10,10,0,1,0-7.07,2.93A10.07,10.07,0,0,0,186.61,332.13Z"/><path class="cls-2" d="M500.84,520.77,359.32,402a141.19,141.19,0,0,0,25-80.36c0-78.3-63.7-142-142-142s-142,63.7-142,142,63.7,142,142,142a141.67,141.67,0,0,0,105.08-46.59l141.1,118.41a8,8,0,0,0,11.27-1l2.06-2.45A8,8,0,0,0,500.84,520.77ZM242.31,443.66a122,122,0,1,1,122-122A122.14,122.14,0,0,1,242.31,443.66Z"/><path class="cls-3" d="M216.34,337.08h2.22v19.56c0,6.5,5.28,13.72,11.77,13.72h24.51c6.51,0,11.77-7.22,11.77-13.72V337.08h1.59a2,2,0,0,0,2-2v-1a2,2,0,0,0-2-2h-1.59V284.08a11.77,11.77,0,0,0-11.77-11.77H230.34a11.77,11.77,0,0,0-11.77,11.77v12.41c0,.16-.09.29-.09.46V325c0,.16.07.3.09.46V332h-2.22a2,2,0,0,0-2,2v1a2,2,0,0,0,2,2m4.29,0H222l-1.4,3.7Zm3,10.82,4.62-17.74h28.71l4.63,17.74s-18.52,6.29-38,0m40.88-7.78-1.16-3h1.16Zm0-15.11v7h-3.09l-.79-2.09A5.09,5.09,0,0,0,264.5,325m-3.25-39.89-4.63,7H227.91l-4.62-7Zm-40.62,6.79.71.48a4.83,4.83,0,0,0-.71.48Zm0,37.17a5,5,0,0,0,3,1.07,4.73,4.73,0,0,0,1.12-.23l-.81,2.14a1.89,1.89,0,0,0-.39-.08h-2.9Z"/></svg>