<svg id="Layer_1" data-name="Layer 1" xmlns="http://www.w3.org/2000/svg" xmlns:xlink="http://www.w3.org/1999/xlink" viewBox="0 0 812 723"><defs><style>.cls-1{fill:none;}.cls-2{clip-path:url(#clip-path);}.cls-3{fill:#f8bb4b;}.cls-4{fill:#001533;opacity:0.8;}</style><clipPath id="clip-path"><rect class="cls-1" x="150.08" y="105.5" width="511.84" height="512"/></clipPath></defs><title>pay easy</title><g class="cls-2"><path class="cls-3" d="M445.91,257.42a10,10,0,1,0,10,10,10,10,0,0,0-10-10"/><path class="cls-4" d="M385.45,452.78a10,10,0,1,0-14.14,0,10,10,0,0,0,14.14,0"/><path class="cls-4" d="M265.44,614.66a10,10,0,0,0,14.11.07L328,566.94a30.21,30.21,0,0,0,7.09-31l10.42-10.06a29.81,29.81,0,0,1,20.81-8.43l132.9-.11a89.51,89.51,0,0,0,62.74-25.55c.69-.68-5.27,6.36,90.58-108.39a40,40,0,0,0-60.89-51.85l-58.94,60.68a40.18,40.18,0,0,0-31.09-14.86l-111.48.09a129,129,0,0,0-50.07-10c-48.12,0-90.15,22.29-112.68,64a29.86,29.86,0,0,0-26.73,8.31L153.1,487.54a10,10,0,0,0,0,14.1ZM340,387.48a109.14,109.14,0,0,1,44,9.12,10,10,0,0,0,4,.84l113.53-.09a20,20,0,1,1,0,40l-81.57.07a10,10,0,0,0,0,20l81.57-.07a39.93,39.93,0,0,0,39.6-45.25c57-58.71,65.06-67,65.4-67.37a20,20,0,1,1,30.55,25.81L547.62,477.79a69.61,69.61,0,0,1-48.44,19.53l-132.9.11a49.7,49.7,0,0,0-34.69,14l-8.49,8.21-78.39-78.25C263,407.07,297.32,387.51,340,387.48M214.78,453.92a10,10,0,0,1,12.38-1.42c1.53.93,87.11,86.58,87.63,87.28a10,10,0,0,1-.91,13L272.6,593.5l-98.31-98.9Z"/><path class="cls-3" d="M306,317.52l239.93-.2a30,30,0,0,0,30-30l-.12-152a30,30,0,0,0-30-30l-239.93.2a30,30,0,0,0-30,30l.12,152a30,30,0,0,0,30,30M555.82,185.35l-259.93.21,0-20,259.93-.21Zm-9.9,112-239.93.2a10,10,0,0,1-10-10l-.07-82,259.93-.21.07,82a10,10,0,0,1-10,10M305.84,125.58l239.93-.2a10,10,0,0,1,10,10v10l-259.93.21v-10a10,10,0,0,1,10-10"/><path class="cls-3" d="M525.89,257.36l-40,0a10,10,0,0,0,0,20l40,0a10,10,0,1,0,0-20"/></g></svg>