<svg id="Layer_1" data-name="Layer 1" xmlns="http://www.w3.org/2000/svg" viewBox="0 0 660 723"><defs><style>.cls-1{fill:#001533;opacity:0.8;}.cls-2{fill:#f8bb4b;}</style></defs><title>share culture</title><path class="cls-1" d="M476.61,405.13a10,10,0,1,0-7.07,2.93A10.07,10.07,0,0,0,476.61,405.13Z"/><path class="cls-1" d="M580.07,391.29A33.78,33.78,0,0,0,526,389V309.91a33.27,33.27,0,0,0-46.48-30.54V274.6a33.28,33.28,0,0,0-66.57,0v4.77a33.27,33.27,0,0,0-46.49,30.54v22.63a33.21,33.21,0,0,0-36.48,6.8,33.21,33.21,0,0,0-36.48-6.8V309.92A33.27,33.27,0,0,0,247,279.37V274.6a33.28,33.28,0,1,0-66.57,0v4.77A33.27,33.27,0,0,0,134,309.92V389a33.79,33.79,0,0,0-59.33,27.89l12.19,61.82A123.69,123.69,0,0,0,121,542.63l8.9,8.88a45.05,45.05,0,0,1,13.33,32.12v23.88a10,10,0,0,0,20,0V583.62A64.91,64.91,0,0,0,144,537.34l-8.91-8.88a103.73,103.73,0,0,1-28.62-53.57L94.27,413.07a13.79,13.79,0,0,1,11.14-16.26,13.84,13.84,0,0,1,15.8,10.3l6.3,25.7a13.33,13.33,0,0,0,6,8.27l.05,0,.2.12.18.11,24,14.64a37.83,37.83,0,0,1,18,32.08,10,10,0,0,0,20,0,58,58,0,0,0-27.57-49.15L154,430.15c0-.18,0-.36,0-.54V309.91a13.28,13.28,0,0,1,26.48-1.44v89.59a10,10,0,0,0,20,0V274.6a13.28,13.28,0,0,1,26.57,0V398.06a10,10,0,0,0,20,0V308.47a13.28,13.28,0,0,1,26.48,1.44l-.08,88.15a10,10,0,0,0,20,0l.08-36.42A13.28,13.28,0,0,1,320,363.08V463.63a103.4,103.4,0,0,1-30.59,73.71,64.92,64.92,0,0,0-19.21,46.28v23.88a10,10,0,0,0,20,0V583.62a45,45,0,0,1,13.33-32.11A123.93,123.93,0,0,0,330,512.59a124,124,0,0,0,26.47,38.91,45.05,45.05,0,0,1,13.33,32.11v23.88a10,10,0,0,0,20,0V583.62a64.91,64.91,0,0,0-19.21-46.28A103.4,103.4,0,0,1,340,463.63V363.08a13.28,13.28,0,0,1,26.48-1.44l.08,36.42a10,10,0,0,0,20,0l-.08-88.15A13.28,13.28,0,0,1,413,308.47v89.59a10,10,0,1,0,20,0V274.6a13.29,13.29,0,0,1,26.57,0v86.9a10,10,0,0,0,20,0v-53A13.28,13.28,0,0,1,506,309.91v119.7c0,.18,0,.36,0,.54l-14.34,8.76a58,58,0,0,0-27.56,49.15,10,10,0,1,0,20,0,37.83,37.83,0,0,1,18-32.08l24.33-14.87.16-.11a13.33,13.33,0,0,0,5.87-8.2l6.3-25.7a13.83,13.83,0,0,1,15.79-10.3,13.8,13.8,0,0,1,11.14,16.26l-12.19,61.82a103.75,103.75,0,0,1-28.62,53.57l-8.9,8.88a64.91,64.91,0,0,0-19.21,46.28v23.88a10,10,0,0,0,20,0V583.62a45.06,45.06,0,0,1,13.33-32.12l8.9-8.88a123.64,123.64,0,0,0,34.13-63.86l12.19-61.82A33.54,33.54,0,0,0,580.07,391.29Z"/><path class="cls-2" d="M282,242.44a325.6,325.6,0,0,0,42.59,34,10,10,0,0,0,10.86,0,325.31,325.31,0,0,0,42.59-34c29.36-27.87,44.25-53.93,44.25-77.46,0-32.79-25.86-59.47-57.65-59.47A56.76,56.76,0,0,0,330,117.43a56.76,56.76,0,0,0-34.62-11.93c-31.79,0-57.65,26.68-57.65,59.47C237.73,188.5,252.62,214.56,282,242.44Zm13.4-116.93a36.52,36.52,0,0,1,27.23,12.21,10,10,0,0,0,14.78,0,36.51,36.51,0,0,1,27.23-12.21c20.76,0,37.65,17.71,37.65,39.47,0,33.62-48,74-72.27,91-24.31-16.93-72.27-57.29-72.27-91C257.73,143.21,274.62,125.51,295.38,125.51Z"/><path class="cls-2" d="M517,215.51a10,10,0,0,0,10-10V193.08a10,10,0,0,0-20,0v12.43A10,10,0,0,0,517,215.51Z"/><path class="cls-2" d="M143,215.51a10,10,0,0,0,10-10V193.08a10,10,0,0,0-20,0v12.43A10,10,0,0,0,143,215.51Z"/></svg>