<svg id="Layer_1" data-name="Layer 1" xmlns="http://www.w3.org/2000/svg" viewBox="0 0 604 717"><defs><style>.cls-1{fill:#001533;}.cls-2{fill:#f8bb4b;}</style></defs><title>support</title><path class="cls-1" d="M411.87,254.4a88.59,88.59,0,0,1-12.53,2l-1.83.16V489H147.81V220.83H320.4l-2.1-3.12a88.37,88.37,0,0,1-8.19-15.16l-.51-1.23H147.81v-4.26c-.84-14.1,3-28.22,10.67-38.77,8.19-9,19.12-13.54,30-12.59H306.2l.41-1.46a88,88,0,0,1,5.9-15.26l1.44-2.89H188.13c-15.3-1-30.51,5.73-41.7,18.47l-.1.12c-10.67,14.18-16.23,33.33-15.25,52.54V548c0,52.41,30.14,71.08,58.34,71.08H356c19.51,0,35.21-7.92,45.39-22.89,8.36-12.3,13-29.41,13-48.19V253.82ZM384,589c-6.87,6.91-16.31,10.41-28.06,10.41H189.42c-37.56,0-41.61-36-41.61-51.47V508.37H397.52V548C397.56,556.22,396.33,576.69,384,589Z"/><path class="cls-2" d="M409,66.94H396.18a75.81,75.81,0,0,0-75.72,75.72A74.91,74.91,0,0,0,328.69,177a76.67,76.67,0,0,0,19.16,23.93v28.4a7.07,7.07,0,0,0,12.07,5l18.16-18.15a76,76,0,0,0,18.1,2.18H409a75.72,75.72,0,0,0,0-151.44Zm0,137.3H396.18a61.59,61.59,0,0,1-18.11-2.71,7.07,7.07,0,0,0-7.08,1.76l-9,9V197.53a7.11,7.11,0,0,0-2.82-5.65,61.58,61.58,0,0,1,37-110.8H409a61.58,61.58,0,1,1,0,123.16Z"/><path class="cls-2" d="M404.73,103.23a23.28,23.28,0,0,0-17.66,6.26,23.56,23.56,0,0,0-7.46,17.16,7.07,7.07,0,0,0,14.14,0,9.33,9.33,0,1,1,11.38,9.1A11.59,11.59,0,0,0,396,147.11V159.3a7.07,7.07,0,1,0,14.14,0V149a23.48,23.48,0,0,0-5.42-45.81Z"/><circle class="cls-2" cx="403.08" cy="176.39" r="6.55"/><path class="cls-1" d="M271.52,525.38a29,29,0,1,0,29,29A29,29,0,0,0,271.52,525.38Zm0,44.75a15.75,15.75,0,1,1,15.75-15.75A15.75,15.75,0,0,1,271.52,570.13Z"/></svg>