<svg id="Layer_1" data-name="Layer 1" xmlns="http://www.w3.org/2000/svg" viewBox="0 0 328 249"><defs><style>.cls-1{fill:#29b9a0;}.cls-2{fill:#f8bb4b;}</style></defs><title>eye</title><path class="cls-1" d="M164,189.09a4.25,4.25,0,0,0-4.25,4.25v15.93a4.25,4.25,0,1,0,8.5,0V193.34A4.25,4.25,0,0,0,164,189.09Z"/><path class="cls-1" d="M115,173.51a4.25,4.25,0,0,0-6,0l-7.93,7.93a4.25,4.25,0,0,0,6,6l7.93-7.93A4.25,4.25,0,0,0,115,173.51Z"/><path class="cls-2" d="M244.49,116.19a4.25,4.25,0,0,0-6.7,5.23,5,5,0,0,1,0,6.18,93.3,93.3,0,0,1-39,29.39,47.54,47.54,0,0,0,.11-64.84,93.22,93.22,0,0,1,24.33,14.39c.91.75,1.82,1.53,2.71,2.31a4.25,4.25,0,1,0,5.63-6.36c-1-.85-2-1.7-3-2.52A102,102,0,0,0,83.51,116.19a13.5,13.5,0,0,0,0,16.63,102,102,0,0,0,161,0A13.5,13.5,0,0,0,244.49,116.19ZM90.21,127.59a5,5,0,0,1,0-6.18,93.3,93.3,0,0,1,39-29.38,47.54,47.54,0,0,0,0,64.94A93.3,93.3,0,0,1,90.21,127.59Zm73.84,36.05h-.1a39.14,39.14,0,0,1,0-78.28H164a39.14,39.14,0,0,1,0,78.28Z"/><path class="cls-2" d="M164,106.47a18,18,0,1,0,18,18A18,18,0,0,0,164,106.47ZM164,134a9.53,9.53,0,1,1,9.53-9.53A9.54,9.54,0,0,1,164,134Z"/><path class="cls-1" d="M164,35.48a4.25,4.25,0,0,0-4.25,4.25V55.66a4.25,4.25,0,0,0,8.5,0V39.73A4.25,4.25,0,0,0,164,35.48Z"/><path class="cls-1" d="M226.95,61.56a4.25,4.25,0,0,0-6,0L213,69.48a4.25,4.25,0,0,0,6,6l7.93-7.93A4.25,4.25,0,0,0,226.95,61.56Z"/><path class="cls-1" d="M115,69.48l-7.93-7.93a4.25,4.25,0,0,0-6,6L109,75.49a4.25,4.25,0,1,0,6-6Z"/><path class="cls-1" d="M226.94,181.44,219,173.51a4.25,4.25,0,0,0-6,6l7.93,7.93a4.25,4.25,0,1,0,6-6Z"/></svg>