<?xml version="1.0" encoding="utf-8"?>
<!-- Generator: Adobe Illustrator 21.1.0, SVG Export Plug-In . SVG Version: 6.00 Build 0)  -->
<svg version="1.1" id="Layer_1" xmlns="http://www.w3.org/2000/svg" xmlns:xlink="http://www.w3.org/1999/xlink" x="0px" y="0px"
	 viewBox="0 0 328 807" style="enable-background:new 0 0 328 807;" xml:space="preserve">
<style type="text/css">
	.st0{opacity:0.35;fill:#2E3192;}
	.st1{fill:#EDEDED;}
	.st2{fill:#001533;}
	.st3{fill:#FFFFFF;}
	.st4{opacity:0.67;fill:#041E46;}
	.st5{fill:#29B9A0;}
	.st6{opacity:0.3;fill:#2E3192;}
	.st7{opacity:0.4;fill:#001533;}
	.st8{opacity:0.2;fill:#29ABE2;}
	.st9{fill:#F8BB4B;}
	.st10{fill:#041E46;}
	.st11{fill:none;stroke:#FFFFFF;stroke-width:4;stroke-miterlimit:10;}
	.st12{fill:none;stroke:#FFFFFF;stroke-miterlimit:10;}
	.st13{clip-path:url(#SVGID_14_);fill:#FFFFFF;}
	.st14{clip-path:url(#SVGID_18_);fill:#FFFFFF;}
	.st15{fill:#FFFFFF;stroke:#FFFFFF;stroke-miterlimit:10;}
	.st16{fill:none;stroke:#29B9A0;stroke-width:4;stroke-miterlimit:10;}
	.st17{fill:none;stroke:#FFFFFF;stroke-width:2;stroke-miterlimit:10;}
	.st18{opacity:0.6;}
	.st19{clip-path:url(#SVGID_20_);fill:#FFFFFF;}
	.st20{fill:none;stroke:#F8BB4B;stroke-miterlimit:10;}
	.st21{clip-path:url(#SVGID_22_);fill:#FFFFFF;}
	.st22{fill:none;stroke:#29B9A0;stroke-width:2;stroke-miterlimit:10;}
	.st23{clip-path:url(#SVGID_24_);fill:#FFFFFF;}
	.st24{clip-path:url(#SVGID_26_);fill:#FFFFFF;}
	.st25{clip-path:url(#SVGID_28_);fill:#FFFFFF;}
	.st26{fill:#FFFFFF;stroke:#FFFFFF;stroke-width:5;stroke-miterlimit:10;}
	.st27{fill:none;stroke:#29B9A0;stroke-miterlimit:10;}
	.st28{clip-path:url(#SVGID_32_);fill:#FFFFFF;}
	.st29{opacity:0.8;fill:#001533;}
	.st30{clip-path:url(#SVGID_34_);fill:#FFFFFF;}
	.st31{clip-path:url(#SVGID_36_);fill:#FFFFFF;}
	.st32{fill:none;stroke:#29B9A0;stroke-width:3;stroke-miterlimit:10;}
	.st33{clip-path:url(#SVGID_38_);fill:#FFFFFF;}
	.st34{clip-path:url(#SVGID_40_);fill:#FFFFFF;}
	.st35{clip-path:url(#SVGID_42_);fill:#FFFFFF;}
	.st36{fill:none;stroke:#29B9A0;stroke-width:1.0218;stroke-miterlimit:10;}
	.st37{clip-path:url(#SVGID_46_);fill:#FFFFFF;}
	.st38{clip-path:url(#SVGID_48_);fill:#FFFFFF;}
	.st39{clip-path:url(#SVGID_50_);fill:#FFFFFF;}
	.st40{clip-path:url(#SVGID_54_);fill:#FFFFFF;}
	.st41{opacity:0.6;fill:#001533;}
	.st42{clip-path:url(#SVGID_56_);fill:#FFFFFF;}
	.st43{clip-path:url(#SVGID_58_);fill:#FFFFFF;}
	.st44{clip-path:url(#SVGID_60_);fill:#FFFFFF;}
	.st45{fill:none;stroke:#FFFFFF;stroke-width:3;stroke-miterlimit:10;}
	.st46{fill:#F9F9F9;}
	.st47{clip-path:url(#SVGID_62_);fill:#FFFFFF;}
	.st48{fill:#303030;}
	.st49{clip-path:url(#SVGID_64_);fill:#FFFFFF;}
	.st50{fill:none;stroke:#303030;stroke-miterlimit:10;}
	.st51{fill:#686868;}
	.st52{fill:#2B2B2B;}
	.st53{fill:none;stroke:#041E46;stroke-width:1.0028;stroke-miterlimit:10;}
	.st54{fill:none;stroke:#FFFFFF;stroke-width:1.6758;stroke-miterlimit:10;}
	.st55{fill:none;stroke:#FFFFFF;stroke-width:6.4268;stroke-miterlimit:10;}
	.st56{fill:none;stroke:#333333;stroke-width:2.8323;stroke-miterlimit:10;}
	.st57{fill:none;stroke:#333333;stroke-width:2.2658;stroke-miterlimit:10;}
	.st58{fill:#333333;}
	.st59{fill:none;stroke:#29B9A0;stroke-width:1.2682;stroke-miterlimit:10;}
	.st60{opacity:0.55;fill:#001533;}
	.st61{clip-path:url(#SVGID_68_);fill:#FFFFFF;}
	.st62{clip-path:url(#SVGID_70_);fill:#FFFFFF;}
	.st63{fill:none;stroke:#FFFFFF;stroke-width:5;stroke-miterlimit:10;}
	.st64{fill:none;stroke:#FFFFFF;stroke-width:2.8323;stroke-miterlimit:10;}
	.st65{fill:none;stroke:#FFFFFF;stroke-width:2.2658;stroke-miterlimit:10;}
	.st66{fill:none;stroke:#FFFFFF;stroke-width:5.101;stroke-miterlimit:10;}
	.st67{fill:none;stroke:#FFFFFF;stroke-width:8.4162;stroke-miterlimit:10;}
	.st68{opacity:9.000000e-02;fill:#669D99;}
	.st69{fill:#AAB1AA;}
	.st70{fill:none;stroke:#FFFFFF;stroke-width:2.5572;}
	.st71{opacity:0.29;fill:#669D99;}
	.st72{fill:none;stroke:#FFFFFF;stroke-width:2.1767;}
	.st73{fill:none;stroke:#F8BB4B;stroke-width:4;stroke-miterlimit:10;}
	.st74{fill:none;stroke:#FFFFFF;stroke-width:1.25;stroke-miterlimit:10;}
	.st75{fill:none;stroke:#F8BB4B;stroke-width:4.4217;stroke-miterlimit:10;}
	.st76{fill:none;stroke:#F8BB4B;stroke-width:3.9394;stroke-miterlimit:10;}
</style>
<g>
	<g>
		<g>
			<g>
				<g>
					<path class="st5" d="M164,285c-3.4,0-6.2,2.8-6.2,6.2v23.2c0,3.4,2.8,6.2,6.2,6.2c3.4,0,6.2-2.8,6.2-6.2v-23.2
						C170.2,287.8,167.4,285,164,285z"/>
				</g>
			</g>
		</g>
		<g>
			<g>
				<g>
					<path class="st5" d="M92.7,262.4c-2.4-2.4-6.3-2.4-8.7,0l-11.5,11.5c-2.4,2.4-2.4,6.3,0,8.7c1.2,1.2,2.8,1.8,4.4,1.8
						s3.2-0.6,4.4-1.8l11.5-11.5C95.1,268.7,95.1,264.8,92.7,262.4z"/>
				</g>
			</g>
		</g>
		<g>
			<g>
				<g>
					<g>
						<path class="st9" d="M281.1,178.9c-2.1-2.7-6-3.2-8.7-1.1c-2.7,2.1-3.2,6-1.1,8.7c2.1,2.6,2.1,6.3,0,9
							c-15.1,19.4-34.7,34-56.7,42.8c11.6-12.4,18.7-29,18.7-47.3c0-18.2-7-34.7-18.5-47.1c12.7,5.1,24.7,12.2,35.4,20.9
							c1.3,1.1,2.7,2.2,3.9,3.4c2.6,2.3,6.5,2,8.7-0.5s2-6.5-0.5-8.7c-1.4-1.2-2.8-2.5-4.3-3.7c-26.4-21.7-59.8-33.6-94.1-33.6
							c-46.1,0-88.8,20.9-117.1,57.2c-5.6,7.1-5.6,17.1,0,24.2c28.4,36.4,71.1,57.2,117.1,57.2c46.1,0,88.8-20.9,117.1-57.2
							C286.7,196,286.7,186.1,281.1,178.9z M56.6,195.5c-2.1-2.6-2.1-6.3,0-9c15.1-19.4,34.7-34,56.7-42.8
							c-11.6,12.4-18.7,29-18.7,47.3c0,18.2,7.1,34.9,18.7,47.3C91.3,229.5,71.7,214.9,56.6,195.5z M164.1,248
							C164.1,248,164,248,164.1,248c-0.1,0-0.1,0-0.1,0c-31.4,0-56.9-25.6-56.9-57s25.5-56.9,56.9-57c0,0,0,0,0.1,0c0,0,0,0,0.1,0
							c31.4,0,56.9,25.6,56.9,57C221,222.4,195.5,248,164.1,248z"/>
					</g>
				</g>
			</g>
			<g>
				<g>
					<g>
						<path class="st9" d="M164,164.8c-14.5,0-26.2,11.8-26.2,26.2s11.8,26.2,26.2,26.2c14.5,0,26.2-11.8,26.2-26.2
							C190.2,176.6,178.5,164.8,164,164.8z M164,204.9c-7.6,0-13.9-6.2-13.9-13.9c0-7.6,6.2-13.9,13.9-13.9s13.9,6.2,13.9,13.9
							C177.9,198.7,171.6,204.9,164,204.9z"/>
					</g>
				</g>
			</g>
			<g>
				<g>
					<g>
						<path class="st5" d="M164,61.5c-3.4,0-6.2,2.8-6.2,6.2v23.2c0,3.4,2.8,6.2,6.2,6.2c3.4,0,6.2-2.8,6.2-6.2V67.7
							C170.2,64.3,167.4,61.5,164,61.5z"/>
					</g>
				</g>
			</g>
			<g>
				<g>
					<g>
						<path class="st5" d="M255.6,99.4c-2.4-2.4-6.3-2.4-8.7,0L235.3,111c-2.4,2.4-2.4,6.3,0,8.7c1.2,1.2,2.8,1.8,4.4,1.8
							c1.6,0,3.2-0.6,4.4-1.8l11.5-11.5C258,105.8,258,101.9,255.6,99.4z"/>
					</g>
				</g>
			</g>
			<g>
				<g>
					<g>
						<path class="st5" d="M92.7,111L81.1,99.4c-2.4-2.4-6.3-2.4-8.7,0c-2.4,2.4-2.4,6.3,0,8.7l11.5,11.5c1.2,1.2,2.8,1.8,4.4,1.8
							s3.2-0.6,4.4-1.8C95.1,117.3,95.1,113.4,92.7,111z"/>
					</g>
				</g>
			</g>
		</g>
		<g>
			<g>
				<g>
					<path class="st5" d="M255.6,273.9l-11.5-11.5c-2.4-2.4-6.3-2.4-8.7,0c-2.4,2.4-2.4,6.3,0,8.7l11.5,11.5
						c1.2,1.2,2.8,1.8,4.4,1.8s3.2-0.6,4.4-1.8C258,280.2,258,276.3,255.6,273.9z"/>
				</g>
			</g>
		</g>
	</g>
	<line class="st75" x1="164.6" y1="353.1" x2="164.6" y2="679.4"/>
	<circle class="st76" cx="164.6" cy="725.6" r="19.9"/>
</g>
</svg>
