<svg id="Layer_1" data-name="Layer 1" xmlns="http://www.w3.org/2000/svg" xmlns:xlink="http://www.w3.org/1999/xlink" viewBox="0 0 464 1916"><defs><style>.cls-1,.cls-2,.cls-3,.cls-4{fill:none;}.cls-2,.cls-3,.cls-4{stroke:#f8bb4b;stroke-miterlimit:10;}.cls-2{stroke-width:7px;}.cls-3{stroke-width:14px;}.cls-4{stroke-width:10px;}.cls-5{clip-path:url(#clip-path);}.cls-6{fill:#29b9a0;}</style><clipPath id="clip-path"><rect class="cls-1" x="98.22" y="191.85" width="227.29" height="198.88"/></clipPath></defs><title>grad hat</title><circle class="cls-2" cx="242.82" cy="1835.62" r="22.63"/><line class="cls-2" x1="242.82" y1="894" x2="242.82" y2="1783"/><circle class="cls-3" cx="135.98" cy="420.84" r="54.98"/><circle class="cls-3" cx="298.92" cy="421.84" r="54.98"/><line class="cls-3" x1="193.66" y1="420.84" x2="245.64" y2="420.84"/><circle class="cls-4" cx="298.64" cy="424.77" r="4.06"/><circle class="cls-4" cx="136.14" cy="424.77" r="4.06"/><g class="cls-5"><path class="cls-6" d="M325.51,376.52a14.21,14.21,0,0,1-28.41,0c0-7.84,6.36-28.41,14.21-28.41s14.21,20.57,14.21,28.41M304.2,270V333.9a7.1,7.1,0,1,0,14.21,0V270a7.1,7.1,0,1,0-14.21,0M309,255.23l-19,4.38V319.7c0,18.85-21.58,35.51-78.13,35.51s-78.13-16.66-78.13-35.51V259.61l-19-4.38a21.31,21.31,0,0,1,0-41.54l92.33-21.31a21.54,21.54,0,0,1,9.49,0L309,213.69a21.32,21.32,0,0,1,0,41.54m-33.2,7.66-59.14,13.64a21.54,21.54,0,0,1-9.49,0L147.94,262.9v56.8c0,7.85,21.31,21.31,63.93,21.31s63.93-13.46,63.93-21.31Zm30-21.51a7.11,7.11,0,0,0,0-13.85l-92.34-21.31-1.6-.18-1.6.18-92.34,21.31a7.11,7.11,0,0,0,0,13.85l92.34,21.31,1.6.18,1.6-.18Z"/></g></svg>