<svg id="Layer_1" data-name="Layer 1" xmlns="http://www.w3.org/2000/svg" viewBox="0 0 623 908"><defs><style>.cls-1{fill:#669d99;opacity:0.09;}.cls-2{fill:#fff;}.cls-3{fill:#f8bb4b;}.cls-4{fill:#aab1aa;}.cls-5{fill:none;stroke:#fff;stroke-width:2.56px;}</style></defs><title>home page_updated</title><ellipse class="cls-1" cx="310.57" cy="775.49" rx="281.36" ry="55.51"/><path class="cls-2" d="M455.79,73.67H169.73c-21.74,0-39.37,25.64-39.37,57.27v12.12H126v31.16h4.37v39.85a7.27,7.27,0,0,0-3.88,6.41v14.61a7.3,7.3,0,0,0,3.88,6.43v39.27a7.28,7.28,0,0,0-3.88,6.41v14.6a7.3,7.3,0,0,0,3.88,6.43V734.18c0,31.63,17.63,57.27,39.37,57.27H455.79c21.74,0,39.36-25.65,39.36-57.27V130.94C495.15,99.31,477.53,73.67,455.79,73.67Z"/><path class="cls-3" d="M451.12,79.14H173.63c-21.09,0-38.19,25.18-38.19,56.24V727.91c0,31.06,17.1,56.24,38.19,56.24h277.5c21.09,0,38.19-25.18,38.19-56.24V135.38C489.31,104.32,472.21,79.14,451.12,79.14Zm18.18,586.44H155.21v-469h314.1Z"/><rect class="cls-4" x="155.36" y="196.48" width="315.73" height="14.87"/><path class="cls-2" d="M349.51,136.73a5.85,5.85,0,0,1-5.84,5.85h-57a5.85,5.85,0,0,1-5.85-5.85h0a5.85,5.85,0,0,1,5.85-5.84h57a5.84,5.84,0,0,1,5.84,5.84Z"/><path class="cls-4" d="M344.15,725.44a29.55,29.55,0,1,1-29.55-29.54A29.55,29.55,0,0,1,344.15,725.44Z"/><path class="cls-5" d="M326.54,736.13a3,3,0,0,1-3,3H305.64a3,3,0,0,1-3-3V718.21a3,3,0,0,1,3-3h17.92a3,3,0,0,1,3,3Z"/></svg>