<svg id="Layer_1" data-name="Layer 1" xmlns="http://www.w3.org/2000/svg" viewBox="0 0 784 1761"><defs><style>.cls-1{fill:#669d99;opacity:0.09;}.cls-2{fill:#fff;}.cls-3{fill:#f8bb4b;}.cls-4{fill:#aab1aa;}.cls-5,.cls-6,.cls-7{fill:none;stroke:#fff;}.cls-5{stroke-width:2.56px;}.cls-6,.cls-7{stroke-miterlimit:10;}.cls-6{stroke-width:2px;}.cls-7{stroke-width:4px;}</style></defs><title>phone icon</title><ellipse class="cls-1" cx="383.47" cy="1473.98" rx="241.47" ry="47.64"/><path class="cls-2" d="M508.09,871.67H262.59c-18.66,0-33.79,22-33.79,49.15v10.4h-3.75V958h3.75v34.2a6.24,6.24,0,0,0-3.33,5.5v12.53a6.26,6.26,0,0,0,3.33,5.52v33.7a6.25,6.25,0,0,0-3.33,5.5v12.53a6.26,6.26,0,0,0,3.33,5.52v365.55c0,27.14,15.13,49.15,33.79,49.15h245.5c18.66,0,33.78-22,33.78-49.15V920.82C541.88,893.67,526.75,871.67,508.09,871.67Z"/><path class="cls-3" d="M504.09,876.36H265.94c-18.1,0-32.78,21.61-32.78,48.27v508.51c0,26.66,14.67,48.27,32.78,48.27H504.09c18.1,0,32.77-21.61,32.77-48.27V924.63C536.86,898,522.19,876.36,504.09,876.36Zm15.61,503.29H250.13V977.19H519.7Z"/><rect class="cls-4" x="250.26" y="977.06" width="270.96" height="12.76"/><path class="cls-2" d="M416.88,925.79a5,5,0,0,1-5,5H363a5,5,0,0,1-5-5h0a5,5,0,0,1,5-5h48.9a5,5,0,0,1,5,5Z"/><path class="cls-4" d="M412.28,1431a25.36,25.36,0,1,1-25.36-25.36A25.36,25.36,0,0,1,412.28,1431Z"/><path class="cls-5" d="M397.17,1440.2a2.56,2.56,0,0,1-2.56,2.56H379.23a2.56,2.56,0,0,1-2.56-2.56v-15.38a2.57,2.57,0,0,1,2.56-2.57h15.38a2.57,2.57,0,0,1,2.56,2.57Z"/><line class="cls-6" x1="381" y1="167" x2="381" y2="742"/><circle class="cls-7" cx="381" cy="803" r="17.5"/><circle class="cls-7" cx="381.5" cy="1576.5" r="17.5"/></svg>