<svg id="Layer_1" data-name="Layer 1" xmlns="http://www.w3.org/2000/svg" viewBox="0 0 455 1335"><defs><style>.cls-1,.cls-2{fill:none;stroke:#f8bb4b;stroke-miterlimit:10;}.cls-1{stroke-width:4.42px;}.cls-2{stroke-width:3.94px;}.cls-3{fill:#29b9a0;}.cls-4{fill:#f8bb4b;}</style></defs><title>terms icon</title><line class="cls-1" x1="238" y1="725.5" x2="238" y2="1152.5"/><circle class="cls-2" cx="238" cy="1213" r="26"/><path id="_Path_" data-name="&lt;Path&gt;" class="cls-3" d="M381.38,143.14,320.54,85.91a9.22,9.22,0,0,0-13.08.4L274,121.92l74.38,70,33.49-35.61A9.33,9.33,0,0,0,381.38,143.14Z"/><path class="cls-4" d="M99,297.43l-.11.12c-.22.23-.43.57-.65.8a.6.6,0,0,0-.16.28,7,7,0,0,0-.52,1.14c0,.11-.05.17-.1.34a7,7,0,0,0-.2.9c0,.11,0,.28,0,.39s-.05.17,0,.28L88.46,385.5a7.31,7.31,0,0,0,2.2,6,7.08,7.08,0,0,0,6.1,1.83l83.12-13.79c.11,0,.17-.06.28-.06s.28-.06.39-.07c.28-.06.61-.19.89-.25.11,0,.17-.06.33-.12.39-.18.71-.41,1.1-.59a.6.6,0,0,1,.27-.18,4.51,4.51,0,0,0,.76-.69l.11-.12L331.43,220.72a7.2,7.2,0,0,0-10.49-9.86L178.46,362.32l-26.73-25.15L293.94,186a7.2,7.2,0,0,0-10.49-9.86L141.24,327.31l-26.73-25.15L256.72,151a7.2,7.2,0,0,0-10.49-9.86L99.09,297.54Zm64.15,70.22-59.52,9.82,6.22-60.07,53.35,50.19Z"/><path class="cls-4" d="M379.46,131.56,332.21,87.12a25.88,25.88,0,0,0-36.56,1.12l-27,28.75a7.22,7.22,0,0,0,.31,10.17l74.38,70a7.22,7.22,0,0,0,10.17-.31L380.57,168A25.79,25.79,0,0,0,379.46,131.56ZM348,181.77l-64-60.16L306.19,98a11.48,11.48,0,0,1,16.21-.5L369.65,142a11.48,11.48,0,0,1,.5,16.21Z"/></svg>
